<?xml version="1.0" encoding="UTF-8" standalone="no"?>
<!DOCTYPE svg PUBLIC "-//W3C//DTD SVG 1.1//EN"
 "http://www.w3.org/Graphics/SVG/1.1/DTD/svg11.dtd">
<!-- Generated by graphviz version 2.38.0 (20140413.2041)
 -->
<!-- Title: G Pages: 1 -->
<svg width="1377pt" height="124pt"
 viewBox="0.00 0.00 1377.40 123.98" xmlns="http://www.w3.org/2000/svg" xmlns:xlink="http://www.w3.org/1999/xlink">
<g id="graph0" class="graph" transform="scale(1 1) rotate(0) translate(7.992 115.992)">
<title>G</title>
<polygon fill="#000000" stroke="none" points="-7.992,7.992 -7.992,-115.992 1369.41,-115.992 1369.41,7.992 -7.992,7.992"/>
<!-- index -->
<g id="node1" class="node"><title>index</title>
<ellipse fill="none" stroke="#c6c5fe" cx="697.784" cy="-90" rx="32.4942" ry="18"/>
<text text-anchor="middle" x="697.784" y="-86.3" font-family="Arial" font-size="14.00" fill="#c6c5fe">index</text>
</g>
<!-- ../node_modules/fun&#45;compose/src/index -->
<g id="node2" class="node"><title>../node_modules/fun&#45;compose/src/index</title>
<ellipse fill="none" stroke="#cfffac" cx="176.784" cy="-18" rx="176.569" ry="18"/>
<text text-anchor="middle" x="176.784" y="-14.3" font-family="Arial" font-size="14.00" fill="#cfffac">../node_modules/fun&#45;compose/src/index</text>
</g>
<!-- index&#45;&gt;../node_modules/fun&#45;compose/src/index -->
<g id="edge1" class="edge"><title>index&#45;&gt;../node_modules/fun&#45;compose/src/index</title>
<path fill="none" stroke="#757575" d="M666.367,-84.7788C593.398,-74.9749 409.514,-50.2689 289.04,-34.0823"/>
<polygon fill="#757575" stroke="#757575" points="289.411,-30.6008 279.034,-32.7379 288.479,-37.5384 289.411,-30.6008"/>
</g>
<!-- ../node_modules/fun&#45;curry/src/index -->
<g id="node3" class="node"><title>../node_modules/fun&#45;curry/src/index</title>
<ellipse fill="none" stroke="#cfffac" cx="528.784" cy="-18" rx="157.072" ry="18"/>
<text text-anchor="middle" x="528.784" y="-14.3" font-family="Arial" font-size="14.00" fill="#cfffac">../node_modules/fun&#45;curry/src/index</text>
</g>
<!-- index&#45;&gt;../node_modules/fun&#45;curry/src/index -->
<g id="edge2" class="edge"><title>index&#45;&gt;../node_modules/fun&#45;curry/src/index</title>
<path fill="none" stroke="#757575" d="M672.483,-78.5203C647.616,-68.2201 609.002,-52.2262 578.062,-39.4107"/>
<polygon fill="#757575" stroke="#757575" points="579.308,-36.1386 568.73,-35.5454 576.629,-42.6058 579.308,-36.1386"/>
</g>
<!-- ../node_modules/fun&#45;unfold/src/index -->
<g id="node4" class="node"><title>../node_modules/fun&#45;unfold/src/index</title>
<ellipse fill="none" stroke="#cfffac" cx="866.784" cy="-18" rx="163.271" ry="18"/>
<text text-anchor="middle" x="866.784" y="-14.3" font-family="Arial" font-size="14.00" fill="#cfffac">../node_modules/fun&#45;unfold/src/index</text>
</g>
<!-- index&#45;&gt;../node_modules/fun&#45;unfold/src/index -->
<g id="edge3" class="edge"><title>index&#45;&gt;../node_modules/fun&#45;unfold/src/index</title>
<path fill="none" stroke="#757575" d="M723.085,-78.5203C747.953,-68.2201 786.567,-52.2262 817.507,-39.4107"/>
<polygon fill="#757575" stroke="#757575" points="818.94,-42.6058 826.839,-35.5454 816.261,-36.1386 818.94,-42.6058"/>
</g>
<!-- ../node_modules/set&#45;prop/src/index -->
<g id="node5" class="node"><title>../node_modules/set&#45;prop/src/index</title>
<ellipse fill="none" stroke="#cfffac" cx="1204.78" cy="-18" rx="156.772" ry="18"/>
<text text-anchor="middle" x="1204.78" y="-14.3" font-family="Arial" font-size="14.00" fill="#cfffac">../node_modules/set&#45;prop/src/index</text>
</g>
<!-- index&#45;&gt;../node_modules/set&#45;prop/src/index -->
<g id="edge4" class="edge"><title>index&#45;&gt;../node_modules/set&#45;prop/src/index</title>
<path fill="none" stroke="#757575" d="M729.117,-84.674C801.281,-74.7105 981.955,-49.7654 1098.7,-33.6466"/>
<polygon fill="#757575" stroke="#757575" points="1099.31,-37.0952 1108.74,-32.2603 1098.36,-30.161 1099.31,-37.0952"/>
</g>
</g>
</svg>
