<?xml version="1.0" encoding="UTF-8" standalone="no"?>
<!DOCTYPE svg PUBLIC "-//W3C//DTD SVG 1.1//EN"
 "http://www.w3.org/Graphics/SVG/1.1/DTD/svg11.dtd">
<!-- Generated by graphviz version 2.38.0 (20140413.2041)
 -->
<!-- Title: G Pages: 1 -->
<svg width="2174pt" height="124pt"
 viewBox="0.00 0.00 2173.55 123.98" xmlns="http://www.w3.org/2000/svg" xmlns:xlink="http://www.w3.org/1999/xlink">
<g id="graph0" class="graph" transform="scale(1 1) rotate(0) translate(7.992 115.992)">
<title>G</title>
<polygon fill="#000000" stroke="none" points="-7.992,7.992 -7.992,-115.992 2165.56,-115.992 2165.56,7.992 -7.992,7.992"/>
<!-- index.js -->
<g id="node1" class="node"><title>index.js</title>
<ellipse fill="none" stroke="#c6c5fe" cx="1048.04" cy="-90" rx="42.4939" ry="18"/>
<text text-anchor="middle" x="1048.04" y="-86.3" font-family="Arial" font-size="14.00" fill="#c6c5fe">index.js</text>
</g>
<!-- ../node_modules/fun&#45;curry/src/index.js -->
<g id="node2" class="node"><title>../node_modules/fun&#45;curry/src/index.js</title>
<ellipse fill="none" stroke="#cfffac" cx="167.035" cy="-18" rx="167.07" ry="18"/>
<text text-anchor="middle" x="167.035" y="-14.3" font-family="Arial" font-size="14.00" fill="#cfffac">../node_modules/fun&#45;curry/src/index.js</text>
</g>
<!-- index.js&#45;&gt;../node_modules/fun&#45;curry/src/index.js -->
<g id="edge1" class="edge"><title>index.js&#45;&gt;../node_modules/fun&#45;curry/src/index.js</title>
<path fill="none" stroke="#757575" d="M1006.69,-86.2001C897.944,-78.7692 594.955,-57.6334 343.035,-36 327.585,-34.6732 311.379,-33.2081 295.317,-31.7109"/>
<polygon fill="#757575" stroke="#757575" points="295.627,-28.2247 285.343,-30.7755 294.973,-35.1941 295.627,-28.2247"/>
</g>
<!-- ../node_modules/fun&#45;type/src/index.js -->
<g id="node3" class="node"><title>../node_modules/fun&#45;type/src/index.js</title>
<ellipse fill="none" stroke="#cfffac" cx="516.035" cy="-18" rx="164.371" ry="18"/>
<text text-anchor="middle" x="516.035" y="-14.3" font-family="Arial" font-size="14.00" fill="#cfffac">../node_modules/fun&#45;type/src/index.js</text>
</g>
<!-- index.js&#45;&gt;../node_modules/fun&#45;type/src/index.js -->
<g id="edge2" class="edge"><title>index.js&#45;&gt;../node_modules/fun&#45;type/src/index.js</title>
<path fill="none" stroke="#757575" d="M1008.05,-83.7386C928.04,-73.2111 745.754,-49.2261 626.931,-33.5916"/>
<polygon fill="#757575" stroke="#757575" points="627.079,-30.0809 616.707,-32.2463 626.165,-37.0211 627.079,-30.0809"/>
</g>
<!-- ../node_modules/fun&#45;unfold/src/index.js -->
<g id="node4" class="node"><title>../node_modules/fun&#45;unfold/src/index.js</title>
<ellipse fill="none" stroke="#cfffac" cx="871.035" cy="-18" rx="172.47" ry="18"/>
<text text-anchor="middle" x="871.035" y="-14.3" font-family="Arial" font-size="14.00" fill="#cfffac">../node_modules/fun&#45;unfold/src/index.js</text>
</g>
<!-- index.js&#45;&gt;../node_modules/fun&#45;unfold/src/index.js -->
<g id="edge3" class="edge"><title>index.js&#45;&gt;../node_modules/fun&#45;unfold/src/index.js</title>
<path fill="none" stroke="#757575" d="M1018.01,-77.1255C991.82,-66.768 953.265,-51.5201 922.213,-39.24"/>
<polygon fill="#757575" stroke="#757575" points="923.426,-35.9559 912.84,-35.5329 920.852,-42.4653 923.426,-35.9559"/>
</g>
<!-- ../node_modules/guarded/src/index.js -->
<g id="node5" class="node"><title>../node_modules/guarded/src/index.js</title>
<ellipse fill="none" stroke="#cfffac" cx="1226.04" cy="-18" rx="165.171" ry="18"/>
<text text-anchor="middle" x="1226.04" y="-14.3" font-family="Arial" font-size="14.00" fill="#cfffac">../node_modules/guarded/src/index.js</text>
</g>
<!-- index.js&#45;&gt;../node_modules/guarded/src/index.js -->
<g id="edge4" class="edge"><title>index.js&#45;&gt;../node_modules/guarded/src/index.js</title>
<path fill="none" stroke="#757575" d="M1078.23,-77.1255C1104.57,-66.768 1143.34,-51.5201 1174.57,-39.24"/>
<polygon fill="#757575" stroke="#757575" points="1175.97,-42.4499 1183.99,-35.5329 1173.41,-35.9355 1175.97,-42.4499"/>
</g>
<!-- ../node_modules/set&#45;prop/src/index.js -->
<g id="node6" class="node"><title>../node_modules/set&#45;prop/src/index.js</title>
<ellipse fill="none" stroke="#cfffac" cx="1575.04" cy="-18" rx="165.971" ry="18"/>
<text text-anchor="middle" x="1575.04" y="-14.3" font-family="Arial" font-size="14.00" fill="#cfffac">../node_modules/set&#45;prop/src/index.js</text>
</g>
<!-- index.js&#45;&gt;../node_modules/set&#45;prop/src/index.js -->
<g id="edge5" class="edge"><title>index.js&#45;&gt;../node_modules/set&#45;prop/src/index.js</title>
<path fill="none" stroke="#757575" d="M1087.65,-83.7386C1166.73,-73.2343 1346.68,-49.3317 1464.4,-33.6949"/>
<polygon fill="#757575" stroke="#757575" points="1465.08,-37.1356 1474.53,-32.3493 1464.16,-30.1966 1465.08,-37.1356"/>
</g>
<!-- ../node_modules/stringify&#45;anything/src/index.js -->
<g id="node7" class="node"><title>../node_modules/stringify&#45;anything/src/index.js</title>
<ellipse fill="none" stroke="#cfffac" cx="1958.04" cy="-18" rx="199.565" ry="18"/>
<text text-anchor="middle" x="1958.04" y="-14.3" font-family="Arial" font-size="14.00" fill="#cfffac">../node_modules/stringify&#45;anything/src/index.js</text>
</g>
<!-- index.js&#45;&gt;../node_modules/stringify&#45;anything/src/index.js -->
<g id="edge6" class="edge"><title>index.js&#45;&gt;../node_modules/stringify&#45;anything/src/index.js</title>
<path fill="none" stroke="#757575" d="M1089.58,-85.9535C1198.16,-77.9725 1499.34,-55.7083 1750.04,-36 1768.18,-34.5739 1787.2,-33.053 1806.07,-31.5295"/>
<polygon fill="#757575" stroke="#757575" points="1806.54,-35.0032 1816.23,-30.7083 1805.98,-28.026 1806.54,-35.0032"/>
</g>
</g>
</svg>
