<?xml version="1.0" encoding="UTF-8" standalone="no"?>
<!DOCTYPE svg PUBLIC "-//W3C//DTD SVG 1.1//EN"
 "http://www.w3.org/Graphics/SVG/1.1/DTD/svg11.dtd">
<!-- Generated by graphviz version 2.38.0 (20140413.2041)
 -->
<!-- Title: G Pages: 1 -->
<svg width="1046pt" height="124pt"
 viewBox="0.00 0.00 1045.90 123.98" xmlns="http://www.w3.org/2000/svg" xmlns:xlink="http://www.w3.org/1999/xlink">
<g id="graph0" class="graph" transform="scale(1 1) rotate(0) translate(7.992 115.992)">
<title>G</title>
<polygon fill="#000000" stroke="none" points="-7.992,7.992 -7.992,-115.992 1037.91,-115.992 1037.91,7.992 -7.992,7.992"/>
<!-- index -->
<g id="node1" class="node"><title>index</title>
<ellipse fill="none" stroke="#c6c5fe" cx="528.784" cy="-90" rx="32.4942" ry="18"/>
<text text-anchor="middle" x="528.784" y="-86.3" font-family="Arial" font-size="14.00" fill="#c6c5fe">index</text>
</g>
<!-- ../node_modules/fun&#45;compose/src/index -->
<g id="node2" class="node"><title>../node_modules/fun&#45;compose/src/index</title>
<ellipse fill="none" stroke="#cfffac" cx="176.784" cy="-18" rx="176.569" ry="18"/>
<text text-anchor="middle" x="176.784" y="-14.3" font-family="Arial" font-size="14.00" fill="#cfffac">../node_modules/fun&#45;compose/src/index</text>
</g>
<!-- index&#45;&gt;../node_modules/fun&#45;compose/src/index -->
<g id="edge1" class="edge"><title>index&#45;&gt;../node_modules/fun&#45;compose/src/index</title>
<path fill="none" stroke="#757575" d="M498.773,-83.0318C447.22,-72.7799 340.012,-51.4601 263.47,-36.2385"/>
<polygon fill="#757575" stroke="#757575" points="263.844,-32.7445 253.353,-34.2267 262.478,-39.61 263.844,-32.7445"/>
</g>
<!-- ../node_modules/fun&#45;curry/src/index -->
<g id="node3" class="node"><title>../node_modules/fun&#45;curry/src/index</title>
<ellipse fill="none" stroke="#cfffac" cx="528.784" cy="-18" rx="157.072" ry="18"/>
<text text-anchor="middle" x="528.784" y="-14.3" font-family="Arial" font-size="14.00" fill="#cfffac">../node_modules/fun&#45;curry/src/index</text>
</g>
<!-- index&#45;&gt;../node_modules/fun&#45;curry/src/index -->
<g id="edge2" class="edge"><title>index&#45;&gt;../node_modules/fun&#45;curry/src/index</title>
<path fill="none" stroke="#757575" d="M528.784,-71.6966C528.784,-63.9827 528.784,-54.7125 528.784,-46.1124"/>
<polygon fill="#757575" stroke="#757575" points="532.284,-46.1043 528.784,-36.1043 525.284,-46.1044 532.284,-46.1043"/>
</g>
<!-- ../node_modules/fun&#45;unfold/src/index -->
<g id="node4" class="node"><title>../node_modules/fun&#45;unfold/src/index</title>
<ellipse fill="none" stroke="#cfffac" cx="866.784" cy="-18" rx="163.271" ry="18"/>
<text text-anchor="middle" x="866.784" y="-14.3" font-family="Arial" font-size="14.00" fill="#cfffac">../node_modules/fun&#45;unfold/src/index</text>
</g>
<!-- index&#45;&gt;../node_modules/fun&#45;unfold/src/index -->
<g id="edge3" class="edge"><title>index&#45;&gt;../node_modules/fun&#45;unfold/src/index</title>
<path fill="none" stroke="#757575" d="M558.78,-82.788C608.698,-72.4498 710.531,-51.3601 783.445,-36.2597"/>
<polygon fill="#757575" stroke="#757575" points="784.45,-39.6258 793.533,-34.1704 783.031,-32.7712 784.45,-39.6258"/>
</g>
</g>
</svg>
