<?xml version="1.0" encoding="UTF-8" standalone="no"?>
<!DOCTYPE svg PUBLIC "-//W3C//DTD SVG 1.1//EN"
 "http://www.w3.org/Graphics/SVG/1.1/DTD/svg11.dtd">
<!-- Generated by graphviz version 2.38.0 (20140413.2041)
 -->
<!-- Title: G Pages: 1 -->
<svg width="1073pt" height="124pt"
 viewBox="0.00 0.00 1072.55 123.98" xmlns="http://www.w3.org/2000/svg" xmlns:xlink="http://www.w3.org/1999/xlink">
<g id="graph0" class="graph" transform="scale(1 1) rotate(0) translate(7.992 115.992)">
<title>G</title>
<polygon fill="#000000" stroke="none" points="-7.992,7.992 -7.992,-115.992 1064.56,-115.992 1064.56,7.992 -7.992,7.992"/>
<!-- index -->
<g id="node1" class="node"><title>index</title>
<ellipse fill="none" stroke="#c6c5fe" cx="501.136" cy="-90" rx="32.4942" ry="18"/>
<text text-anchor="middle" x="501.136" y="-86.3" font-family="Arial" font-size="14.00" fill="#c6c5fe">index</text>
</g>
<!-- ../node_modules/fun&#45;unfold/src/index -->
<g id="node2" class="node"><title>../node_modules/fun&#45;unfold/src/index</title>
<ellipse fill="none" stroke="#cfffac" cx="163.136" cy="-18" rx="163.271" ry="18"/>
<text text-anchor="middle" x="163.136" y="-14.3" font-family="Arial" font-size="14.00" fill="#cfffac">../node_modules/fun&#45;unfold/src/index</text>
</g>
<!-- index&#45;&gt;../node_modules/fun&#45;unfold/src/index -->
<g id="edge1" class="edge"><title>index&#45;&gt;../node_modules/fun&#45;unfold/src/index</title>
<path fill="none" stroke="#757575" d="M471.14,-82.788C421.222,-72.4498 319.389,-51.3601 246.475,-36.2597"/>
<polygon fill="#757575" stroke="#757575" points="246.889,-32.7712 236.387,-34.1704 245.469,-39.6258 246.889,-32.7712"/>
</g>
<!-- ../node_modules/set&#45;prop/src/index -->
<g id="node3" class="node"><title>../node_modules/set&#45;prop/src/index</title>
<ellipse fill="none" stroke="#cfffac" cx="501.136" cy="-18" rx="156.772" ry="18"/>
<text text-anchor="middle" x="501.136" y="-14.3" font-family="Arial" font-size="14.00" fill="#cfffac">../node_modules/set&#45;prop/src/index</text>
</g>
<!-- index&#45;&gt;../node_modules/set&#45;prop/src/index -->
<g id="edge2" class="edge"><title>index&#45;&gt;../node_modules/set&#45;prop/src/index</title>
<path fill="none" stroke="#757575" d="M501.136,-71.6966C501.136,-63.9827 501.136,-54.7125 501.136,-46.1124"/>
<polygon fill="#757575" stroke="#757575" points="504.636,-46.1043 501.136,-36.1043 497.636,-46.1044 504.636,-46.1043"/>
</g>
<!-- ../node_modules/stringify&#45;anything/src/index -->
<g id="node4" class="node"><title>../node_modules/stringify&#45;anything/src/index</title>
<ellipse fill="none" stroke="#cfffac" cx="866.136" cy="-18" rx="190.366" ry="18"/>
<text text-anchor="middle" x="866.136" y="-14.3" font-family="Arial" font-size="14.00" fill="#cfffac">../node_modules/stringify&#45;anything/src/index</text>
</g>
<!-- index&#45;&gt;../node_modules/stringify&#45;anything/src/index -->
<g id="edge3" class="edge"><title>index&#45;&gt;../node_modules/stringify&#45;anything/src/index</title>
<path fill="none" stroke="#757575" d="M531.316,-83.2121C584.303,-73.0501 696.004,-51.628 775.813,-36.3221"/>
<polygon fill="#757575" stroke="#757575" points="776.709,-39.7141 785.871,-34.3932 775.391,-32.8394 776.709,-39.7141"/>
</g>
</g>
</svg>
