<?xml version="1.0" encoding="UTF-8" standalone="no"?>
<!DOCTYPE svg PUBLIC "-//W3C//DTD SVG 1.1//EN"
 "http://www.w3.org/Graphics/SVG/1.1/DTD/svg11.dtd">
<!-- Generated by graphviz version 2.38.0 (20140413.2041)
 -->
<!-- Title: G Pages: 1 -->
<svg width="1827pt" height="124pt"
 viewBox="0.00 0.00 1826.55 123.98" xmlns="http://www.w3.org/2000/svg" xmlns:xlink="http://www.w3.org/1999/xlink">
<g id="graph0" class="graph" transform="scale(1 1) rotate(0) translate(7.992 115.992)">
<title>G</title>
<polygon fill="#000000" stroke="none" points="-7.992,7.992 -7.992,-115.992 1818.56,-115.992 1818.56,7.992 -7.992,7.992"/>
<!-- index.js -->
<g id="node1" class="node"><title>index.js</title>
<ellipse fill="none" stroke="#c6c5fe" cx="879.035" cy="-90" rx="42.4939" ry="18"/>
<text text-anchor="middle" x="879.035" y="-86.3" font-family="Arial" font-size="14.00" fill="#c6c5fe">index.js</text>
</g>
<!-- ../node_modules/fun&#45;curry/src/index.js -->
<g id="node2" class="node"><title>../node_modules/fun&#45;curry/src/index.js</title>
<ellipse fill="none" stroke="#cfffac" cx="167.035" cy="-18" rx="167.07" ry="18"/>
<text text-anchor="middle" x="167.035" y="-14.3" font-family="Arial" font-size="14.00" fill="#cfffac">../node_modules/fun&#45;curry/src/index.js</text>
</g>
<!-- index.js&#45;&gt;../node_modules/fun&#45;curry/src/index.js -->
<g id="edge1" class="edge"><title>index.js&#45;&gt;../node_modules/fun&#45;curry/src/index.js</title>
<path fill="none" stroke="#757575" d="M838.198,-84.9851C735.016,-74.8408 460.393,-47.8414 296.172,-31.6961"/>
<polygon fill="#757575" stroke="#757575" points="296.3,-28.1918 286.005,-30.6965 295.615,-35.1582 296.3,-28.1918"/>
</g>
<!-- ../node_modules/fun&#45;unfold/src/index.js -->
<g id="node3" class="node"><title>../node_modules/fun&#45;unfold/src/index.js</title>
<ellipse fill="none" stroke="#cfffac" cx="524.035" cy="-18" rx="172.47" ry="18"/>
<text text-anchor="middle" x="524.035" y="-14.3" font-family="Arial" font-size="14.00" fill="#cfffac">../node_modules/fun&#45;unfold/src/index.js</text>
</g>
<!-- index.js&#45;&gt;../node_modules/fun&#45;unfold/src/index.js -->
<g id="edge2" class="edge"><title>index.js&#45;&gt;../node_modules/fun&#45;unfold/src/index.js</title>
<path fill="none" stroke="#757575" d="M841.38,-81.575C787.013,-70.8549 684.979,-50.7355 611.259,-36.199"/>
<polygon fill="#757575" stroke="#757575" points="611.54,-32.6872 601.052,-34.1864 610.186,-39.555 611.54,-32.6872"/>
</g>
<!-- ../node_modules/guarded/src/index.js -->
<g id="node4" class="node"><title>../node_modules/guarded/src/index.js</title>
<ellipse fill="none" stroke="#cfffac" cx="879.035" cy="-18" rx="165.171" ry="18"/>
<text text-anchor="middle" x="879.035" y="-14.3" font-family="Arial" font-size="14.00" fill="#cfffac">../node_modules/guarded/src/index.js</text>
</g>
<!-- index.js&#45;&gt;../node_modules/guarded/src/index.js -->
<g id="edge3" class="edge"><title>index.js&#45;&gt;../node_modules/guarded/src/index.js</title>
<path fill="none" stroke="#757575" d="M879.035,-71.6966C879.035,-63.9827 879.035,-54.7125 879.035,-46.1124"/>
<polygon fill="#757575" stroke="#757575" points="882.535,-46.1043 879.035,-36.1043 875.535,-46.1044 882.535,-46.1043"/>
</g>
<!-- ../node_modules/set&#45;prop/src/index.js -->
<g id="node5" class="node"><title>../node_modules/set&#45;prop/src/index.js</title>
<ellipse fill="none" stroke="#cfffac" cx="1228.04" cy="-18" rx="165.971" ry="18"/>
<text text-anchor="middle" x="1228.04" y="-14.3" font-family="Arial" font-size="14.00" fill="#cfffac">../node_modules/set&#45;prop/src/index.js</text>
</g>
<!-- index.js&#45;&gt;../node_modules/set&#45;prop/src/index.js -->
<g id="edge4" class="edge"><title>index.js&#45;&gt;../node_modules/set&#45;prop/src/index.js</title>
<path fill="none" stroke="#757575" d="M916.384,-81.5088C970.043,-70.7463 1070.44,-50.6091 1142.81,-36.0945"/>
<polygon fill="#757575" stroke="#757575" points="1143.71,-39.4836 1152.82,-34.0853 1142.33,-32.6203 1143.71,-39.4836"/>
</g>
<!-- ../node_modules/stringify&#45;anything/src/index.js -->
<g id="node6" class="node"><title>../node_modules/stringify&#45;anything/src/index.js</title>
<ellipse fill="none" stroke="#cfffac" cx="1611.04" cy="-18" rx="199.565" ry="18"/>
<text text-anchor="middle" x="1611.04" y="-14.3" font-family="Arial" font-size="14.00" fill="#cfffac">../node_modules/stringify&#45;anything/src/index.js</text>
</g>
<!-- index.js&#45;&gt;../node_modules/stringify&#45;anything/src/index.js -->
<g id="edge5" class="edge"><title>index.js&#45;&gt;../node_modules/stringify&#45;anything/src/index.js</title>
<path fill="none" stroke="#757575" d="M919.696,-85.1117C1022.93,-75.2395 1299.04,-48.8358 1469.45,-32.54"/>
<polygon fill="#757575" stroke="#757575" points="1469.88,-36.0146 1479.5,-31.5784 1469.21,-29.0463 1469.88,-36.0146"/>
</g>
</g>
</svg>
