<?xml version="1.0" encoding="UTF-8" standalone="no"?>
<!DOCTYPE svg PUBLIC "-//W3C//DTD SVG 1.1//EN"
 "http://www.w3.org/Graphics/SVG/1.1/DTD/svg11.dtd">
<!-- Generated by graphviz version 2.38.0 (20140413.2041)
 -->
<!-- Title: G Pages: 1 -->
<svg width="1444pt" height="124pt"
 viewBox="0.00 0.00 1444.20 123.98" xmlns="http://www.w3.org/2000/svg" xmlns:xlink="http://www.w3.org/1999/xlink">
<g id="graph0" class="graph" transform="scale(1 1) rotate(0) translate(7.992 115.992)">
<title>G</title>
<polygon fill="#000000" stroke="none" points="-7.992,7.992 -7.992,-115.992 1436.21,-115.992 1436.21,7.992 -7.992,7.992"/>
<!-- index -->
<g id="node1" class="node"><title>index</title>
<ellipse fill="none" stroke="#c6c5fe" cx="703.784" cy="-90" rx="32.4942" ry="18"/>
<text text-anchor="middle" x="703.784" y="-86.3" font-family="Arial" font-size="14.00" fill="#c6c5fe">index</text>
</g>
<!-- ../node_modules/fun&#45;compose/src/index -->
<g id="node2" class="node"><title>../node_modules/fun&#45;compose/src/index</title>
<ellipse fill="none" stroke="#cfffac" cx="176.784" cy="-18" rx="176.569" ry="18"/>
<text text-anchor="middle" x="176.784" y="-14.3" font-family="Arial" font-size="14.00" fill="#cfffac">../node_modules/fun&#45;compose/src/index</text>
</g>
<!-- index&#45;&gt;../node_modules/fun&#45;compose/src/index -->
<g id="edge1" class="edge"><title>index&#45;&gt;../node_modules/fun&#45;compose/src/index</title>
<path fill="none" stroke="#757575" d="M672.396,-84.8308C598.739,-75.0471 411.823,-50.2196 289.756,-34.0058"/>
<polygon fill="#757575" stroke="#757575" points="289.993,-30.5066 279.619,-32.6593 289.071,-37.4456 289.993,-30.5066"/>
</g>
<!-- ../node_modules/fun&#45;unfold/src/index -->
<g id="node3" class="node"><title>../node_modules/fun&#45;unfold/src/index</title>
<ellipse fill="none" stroke="#cfffac" cx="534.784" cy="-18" rx="163.271" ry="18"/>
<text text-anchor="middle" x="534.784" y="-14.3" font-family="Arial" font-size="14.00" fill="#cfffac">../node_modules/fun&#45;unfold/src/index</text>
</g>
<!-- index&#45;&gt;../node_modules/fun&#45;unfold/src/index -->
<g id="edge2" class="edge"><title>index&#45;&gt;../node_modules/fun&#45;unfold/src/index</title>
<path fill="none" stroke="#757575" d="M678.483,-78.5203C653.616,-68.2201 615.002,-52.2262 584.062,-39.4107"/>
<polygon fill="#757575" stroke="#757575" points="585.308,-36.1386 574.73,-35.5454 582.629,-42.6058 585.308,-36.1386"/>
</g>
<!-- ../node_modules/set&#45;prop/src/index -->
<g id="node4" class="node"><title>../node_modules/set&#45;prop/src/index</title>
<ellipse fill="none" stroke="#cfffac" cx="872.784" cy="-18" rx="156.772" ry="18"/>
<text text-anchor="middle" x="872.784" y="-14.3" font-family="Arial" font-size="14.00" fill="#cfffac">../node_modules/set&#45;prop/src/index</text>
</g>
<!-- index&#45;&gt;../node_modules/set&#45;prop/src/index -->
<g id="edge3" class="edge"><title>index&#45;&gt;../node_modules/set&#45;prop/src/index</title>
<path fill="none" stroke="#757575" d="M729.085,-78.5203C753.953,-68.2201 792.567,-52.2262 823.507,-39.4107"/>
<polygon fill="#757575" stroke="#757575" points="824.94,-42.6058 832.839,-35.5454 822.261,-36.1386 824.94,-42.6058"/>
</g>
<!-- ../node_modules/stringify&#45;anything/src/index -->
<g id="node5" class="node"><title>../node_modules/stringify&#45;anything/src/index</title>
<ellipse fill="none" stroke="#cfffac" cx="1237.78" cy="-18" rx="190.366" ry="18"/>
<text text-anchor="middle" x="1237.78" y="-14.3" font-family="Arial" font-size="14.00" fill="#cfffac">../node_modules/stringify&#45;anything/src/index</text>
</g>
<!-- index&#45;&gt;../node_modules/stringify&#45;anything/src/index -->
<g id="edge4" class="edge"><title>index&#45;&gt;../node_modules/stringify&#45;anything/src/index</title>
<path fill="none" stroke="#757575" d="M735.195,-84.8825C809.203,-75.181 997.609,-50.4837 1121.55,-34.2372"/>
<polygon fill="#757575" stroke="#757575" points="1122.01,-37.7065 1131.47,-32.9364 1121.1,-30.7659 1122.01,-37.7065"/>
</g>
</g>
</svg>
