<?xml version="1.0" encoding="UTF-8" standalone="no"?>
<!DOCTYPE svg PUBLIC "-//W3C//DTD SVG 1.1//EN"
 "http://www.w3.org/Graphics/SVG/1.1/DTD/svg11.dtd">
<!-- Generated by graphviz version 2.38.0 (20140413.2041)
 -->
<!-- Title: G Pages: 1 -->
<svg width="1405pt" height="124pt"
 viewBox="0.00 0.00 1404.70 123.98" xmlns="http://www.w3.org/2000/svg" xmlns:xlink="http://www.w3.org/1999/xlink">
<g id="graph0" class="graph" transform="scale(1 1) rotate(0) translate(7.992 115.992)">
<title>G</title>
<polygon fill="#000000" stroke="none" points="-7.992,7.992 -7.992,-115.992 1396.71,-115.992 1396.71,7.992 -7.992,7.992"/>
<!-- index -->
<g id="node1" class="node"><title>index</title>
<ellipse fill="none" stroke="#c6c5fe" cx="664.286" cy="-90" rx="32.4942" ry="18"/>
<text text-anchor="middle" x="664.286" y="-86.3" font-family="Arial" font-size="14.00" fill="#c6c5fe">index</text>
</g>
<!-- ../node_modules/fun&#45;curry/src/index -->
<g id="node2" class="node"><title>../node_modules/fun&#45;curry/src/index</title>
<ellipse fill="none" stroke="#cfffac" cx="157.286" cy="-18" rx="157.072" ry="18"/>
<text text-anchor="middle" x="157.286" y="-14.3" font-family="Arial" font-size="14.00" fill="#cfffac">../node_modules/fun&#45;curry/src/index</text>
</g>
<!-- index&#45;&gt;../node_modules/fun&#45;curry/src/index -->
<g id="edge1" class="edge"><title>index&#45;&gt;../node_modules/fun&#45;curry/src/index</title>
<path fill="none" stroke="#757575" d="M632.954,-84.674C560.789,-74.7105 380.116,-49.7654 263.37,-33.6466"/>
<polygon fill="#757575" stroke="#757575" points="263.714,-30.161 253.329,-32.2603 262.756,-37.0952 263.714,-30.161"/>
</g>
<!-- ../node_modules/fun&#45;unfold/src/index -->
<g id="node3" class="node"><title>../node_modules/fun&#45;unfold/src/index</title>
<ellipse fill="none" stroke="#cfffac" cx="495.286" cy="-18" rx="163.271" ry="18"/>
<text text-anchor="middle" x="495.286" y="-14.3" font-family="Arial" font-size="14.00" fill="#cfffac">../node_modules/fun&#45;unfold/src/index</text>
</g>
<!-- index&#45;&gt;../node_modules/fun&#45;unfold/src/index -->
<g id="edge2" class="edge"><title>index&#45;&gt;../node_modules/fun&#45;unfold/src/index</title>
<path fill="none" stroke="#757575" d="M638.985,-78.5203C614.117,-68.2201 575.504,-52.2262 544.563,-39.4107"/>
<polygon fill="#757575" stroke="#757575" points="545.81,-36.1386 535.231,-35.5454 543.131,-42.6058 545.81,-36.1386"/>
</g>
<!-- ../node_modules/set&#45;prop/src/index -->
<g id="node4" class="node"><title>../node_modules/set&#45;prop/src/index</title>
<ellipse fill="none" stroke="#cfffac" cx="833.286" cy="-18" rx="156.772" ry="18"/>
<text text-anchor="middle" x="833.286" y="-14.3" font-family="Arial" font-size="14.00" fill="#cfffac">../node_modules/set&#45;prop/src/index</text>
</g>
<!-- index&#45;&gt;../node_modules/set&#45;prop/src/index -->
<g id="edge3" class="edge"><title>index&#45;&gt;../node_modules/set&#45;prop/src/index</title>
<path fill="none" stroke="#757575" d="M689.587,-78.5203C714.455,-68.2201 753.069,-52.2262 784.009,-39.4107"/>
<polygon fill="#757575" stroke="#757575" points="785.441,-42.6058 793.341,-35.5454 782.763,-36.1386 785.441,-42.6058"/>
</g>
<!-- ../node_modules/stringify&#45;anything/src/index -->
<g id="node5" class="node"><title>../node_modules/stringify&#45;anything/src/index</title>
<ellipse fill="none" stroke="#cfffac" cx="1198.29" cy="-18" rx="190.366" ry="18"/>
<text text-anchor="middle" x="1198.29" y="-14.3" font-family="Arial" font-size="14.00" fill="#cfffac">../node_modules/stringify&#45;anything/src/index</text>
</g>
<!-- index&#45;&gt;../node_modules/stringify&#45;anything/src/index -->
<g id="edge4" class="edge"><title>index&#45;&gt;../node_modules/stringify&#45;anything/src/index</title>
<path fill="none" stroke="#757575" d="M695.697,-84.8825C769.705,-75.181 958.111,-50.4837 1082.05,-34.2372"/>
<polygon fill="#757575" stroke="#757575" points="1082.51,-37.7065 1091.97,-32.9364 1081.6,-30.7659 1082.51,-37.7065"/>
</g>
</g>
</svg>
