<?xml version="1.0" encoding="UTF-8" standalone="no"?>
<!DOCTYPE svg PUBLIC "-//W3C//DTD SVG 1.1//EN"
 "http://www.w3.org/Graphics/SVG/1.1/DTD/svg11.dtd">
<!-- Generated by graphviz version 2.38.0 (20140413.2041)
 -->
<!-- Title: G Pages: 1 -->
<svg width="1000pt" height="124pt"
 viewBox="0.00 0.00 1000.31 123.98" xmlns="http://www.w3.org/2000/svg" xmlns:xlink="http://www.w3.org/1999/xlink">
<g id="graph0" class="graph" transform="scale(1 1) rotate(0) translate(7.992 115.992)">
<title>G</title>
<polygon fill="#000000" stroke="none" points="-7.992,7.992 -7.992,-115.992 992.313,-115.992 992.313,7.992 -7.992,7.992"/>
<!-- src/index -->
<g id="node1" class="node"><title>src/index</title>
<ellipse fill="none" stroke="#c6c5fe" cx="505.985" cy="-90" rx="48.1917" ry="18"/>
<text text-anchor="middle" x="505.985" y="-86.3" font-family="Arial" font-size="14.00" fill="#c6c5fe">src/index</text>
</g>
<!-- node_modules/fun&#45;compose/src/index -->
<g id="node2" class="node"><title>node_modules/fun&#45;compose/src/index</title>
<ellipse fill="none" stroke="#cfffac" cx="168.985" cy="-18" rx="168.97" ry="18"/>
<text text-anchor="middle" x="168.985" y="-14.3" font-family="Arial" font-size="14.00" fill="#cfffac">node_modules/fun&#45;compose/src/index</text>
</g>
<!-- src/index&#45;&gt;node_modules/fun&#45;compose/src/index -->
<g id="edge1" class="edge"><title>src/index&#45;&gt;node_modules/fun&#45;compose/src/index</title>
<path fill="none" stroke="#757575" d="M464.999,-80.4866C412.526,-69.5871 320.32,-50.4346 252.723,-36.3937"/>
<polygon fill="#757575" stroke="#757575" points="253.019,-32.8805 242.516,-34.2735 251.595,-39.7342 253.019,-32.8805"/>
</g>
<!-- node_modules/fun&#45;curry/src/index -->
<g id="node3" class="node"><title>node_modules/fun&#45;curry/src/index</title>
<ellipse fill="none" stroke="#cfffac" cx="505.985" cy="-18" rx="150.273" ry="18"/>
<text text-anchor="middle" x="505.985" y="-14.3" font-family="Arial" font-size="14.00" fill="#cfffac">node_modules/fun&#45;curry/src/index</text>
</g>
<!-- src/index&#45;&gt;node_modules/fun&#45;curry/src/index -->
<g id="edge2" class="edge"><title>src/index&#45;&gt;node_modules/fun&#45;curry/src/index</title>
<path fill="none" stroke="#757575" d="M505.985,-71.6966C505.985,-63.9827 505.985,-54.7125 505.985,-46.1124"/>
<polygon fill="#757575" stroke="#757575" points="509.485,-46.1043 505.985,-36.1043 502.485,-46.1044 509.485,-46.1043"/>
</g>
<!-- node_modules/fun&#45;unfold/src/index -->
<g id="node4" class="node"><title>node_modules/fun&#45;unfold/src/index</title>
<ellipse fill="none" stroke="#cfffac" cx="828.985" cy="-18" rx="155.173" ry="18"/>
<text text-anchor="middle" x="828.985" y="-14.3" font-family="Arial" font-size="14.00" fill="#cfffac">node_modules/fun&#45;unfold/src/index</text>
</g>
<!-- src/index&#45;&gt;node_modules/fun&#45;unfold/src/index -->
<g id="edge3" class="edge"><title>src/index&#45;&gt;node_modules/fun&#45;unfold/src/index</title>
<path fill="none" stroke="#757575" d="M546.566,-80.2053C597.148,-69.2434 684.757,-50.2568 749.019,-36.3301"/>
<polygon fill="#757575" stroke="#757575" points="750.091,-39.6791 759.123,-34.1404 748.609,-32.8379 750.091,-39.6791"/>
</g>
</g>
</svg>
