<?xml version="1.0" encoding="UTF-8" standalone="no"?>
<!DOCTYPE svg PUBLIC "-//W3C//DTD SVG 1.1//EN"
 "http://www.w3.org/Graphics/SVG/1.1/DTD/svg11.dtd">
<!-- Generated by graphviz version 2.38.0 (20140413.2041)
 -->
<!-- Title: G Pages: 1 -->
<svg width="672pt" height="124pt"
 viewBox="0.00 0.00 672.11 123.98" xmlns="http://www.w3.org/2000/svg" xmlns:xlink="http://www.w3.org/1999/xlink">
<g id="graph0" class="graph" transform="scale(1 1) rotate(0) translate(7.992 115.992)">
<title>G</title>
<polygon fill="#000000" stroke="none" points="-7.992,7.992 -7.992,-115.992 664.114,-115.992 664.114,7.992 -7.992,7.992"/>
<!-- src/index -->
<g id="node1" class="node"><title>src/index</title>
<ellipse fill="none" stroke="#c6c5fe" cx="336.985" cy="-90" rx="48.1917" ry="18"/>
<text text-anchor="middle" x="336.985" y="-86.3" font-family="Arial" font-size="14.00" fill="#c6c5fe">src/index</text>
</g>
<!-- node_modules/fun&#45;compose/src/index -->
<g id="node2" class="node"><title>node_modules/fun&#45;compose/src/index</title>
<ellipse fill="none" stroke="#cfffac" cx="168.985" cy="-18" rx="168.97" ry="18"/>
<text text-anchor="middle" x="168.985" y="-14.3" font-family="Arial" font-size="14.00" fill="#cfffac">node_modules/fun&#45;compose/src/index</text>
</g>
<!-- src/index&#45;&gt;node_modules/fun&#45;compose/src/index -->
<g id="edge1" class="edge"><title>src/index&#45;&gt;node_modules/fun&#45;compose/src/index</title>
<path fill="none" stroke="#757575" d="M306.171,-76.1609C281.576,-65.9127 246.645,-51.3583 218.187,-39.5009"/>
<polygon fill="#757575" stroke="#757575" points="219.386,-36.2086 208.809,-35.5932 216.693,-42.6702 219.386,-36.2086"/>
</g>
<!-- node_modules/fun&#45;curry/src/index -->
<g id="node3" class="node"><title>node_modules/fun&#45;curry/src/index</title>
<ellipse fill="none" stroke="#cfffac" cx="505.985" cy="-18" rx="150.273" ry="18"/>
<text text-anchor="middle" x="505.985" y="-14.3" font-family="Arial" font-size="14.00" fill="#cfffac">node_modules/fun&#45;curry/src/index</text>
</g>
<!-- src/index&#45;&gt;node_modules/fun&#45;curry/src/index -->
<g id="edge2" class="edge"><title>src/index&#45;&gt;node_modules/fun&#45;curry/src/index</title>
<path fill="none" stroke="#757575" d="M367.982,-76.1609C392.81,-65.8773 428.106,-51.2575 456.787,-39.3779"/>
<polygon fill="#757575" stroke="#757575" points="458.336,-42.5248 466.235,-35.4644 455.657,-36.0576 458.336,-42.5248"/>
</g>
</g>
</svg>
